<svg xmlns="http://www.w3.org/2000/svg" xmlns:xlink="http://www.w3.org/1999/xlink" width="48" height="48" viewBox="0 0 48 48"><defs><path id="a" d="M13.334,0.03 C13.112,0.049 12.885,0.085 12.663,0.111 C12.22,0.187 11.79,0.292 11.372,0.438 C10.538,0.729 9.772,1.18 9.15,1.751 C8.522,2.318 8.054,3.007 7.726,3.702 C7.394,4.398 7.23,5.11 7.107,5.762 C7.066,6.092 7.027,6.409 7.009,6.711 C7.005,7.014 7.003,7.301 7,7.572 C7.048,8.104 7.072,8.567 7.124,8.948 C7.269,9.702 7.352,10.134 7.352,10.134 L7.974,10.256 C7.974,10.256 8.244,4.659 10.334,3.873 C12.423,3.088 15.66,3.088 17.748,3.873 C19.837,4.659 20.013,10.256 20.013,10.256 L20.636,10.134 C20.636,10.134 20.718,9.704 20.863,8.951 C20.917,8.572 20.94,8.104 20.989,7.567 C20.986,7.3 20.983,7.016 20.98,6.715 C20.96,6.413 20.922,6.094 20.882,5.762 C20.758,5.111 20.595,4.398 20.262,3.702 C19.932,3.009 19.469,2.318 18.84,1.751 C18.218,1.18 17.45,0.729 16.617,0.438 C15.777,0.145 14.895,0.008 13.985,0 L13.334,0.03 Z"/></defs><g fill="none" fill-rule="evenodd" transform="translate(10 10)"><g fill-rule="nonzero" transform="translate(22 20)"><path fill="#1EA200" d="M8,0 C12.418687,0 16,3.58131298 16,8 C16,12.418687 12.418687,16 8,16 C3.58131298,16 0,12.418687 0,8 C0,3.58131298 3.58131298,0 8,0 Z"/><path fill="#FFF" stroke="#FFF" stroke-width=".5" d="M11.1055706,5.02046245 C11.363737,4.76229601 11.7823075,4.76229601 12.040474,5.02046245 C12.2751707,5.2551592 12.2965068,5.6224213 12.1044822,5.88122085 L12.040474,5.95536581 L7.01645292,10.9793869 C6.75828648,11.2375533 6.33971599,11.2375533 6.08154956,10.9793869 C5.8468528,10.7446901 5.82551673,10.377428 6.01754135,10.1186285 L6.08154956,10.0444835 L11.1055706,5.02046245 Z"/><path fill="#FFF" stroke="#FFF" stroke-width=".5" d="M3.95982741,7.92276135 C4.19452417,7.6880646 4.56178626,7.66672853 4.82058581,7.85875315 L4.89473077,7.92276135 L7.01645292,10.0444835 C7.27461935,10.3026499 7.27461935,10.7212204 7.01645292,10.9793869 C6.78175616,11.2140836 6.41449406,11.2354197 6.15569452,11.0433951 L6.08154956,10.9793869 L3.95982741,8.85766471 C3.70166097,8.59949828 3.70166097,8.18092779 3.95982741,7.92276135 Z"/></g><path fill="#7A7A7D" d="M8.19549083,16.8070947 C9.74470084,18.7456173 11.7609703,20 13.9874635,20 C16.2102114,20 18.2233938,18.7503336 19.7716352,16.8179919 C21.1239224,17.2393229 22.3618202,17.8292838 23.4447122,18.594891 C23.8678547,18.8753158 24.2811254,19.1866246 24.6751201,19.5224236 C21.8566483,21.2899378 19.9835597,24.4258547 19.9835597,28 C19.9835597,29.4224753 20.28025,30.7755367 20.8150825,32.0005882 L1.77478989,32.0004 C0.842223775,32.0004 0.0761873212,31.2200288 0.00534613088,30.2270397 L0,30.0765677 L0,25.2669868 C0,22.9541725 1.89194351,20.4669868 4.16332486,18.8401605 C5.23230119,18.0181246 6.47028789,17.3833572 7.83279333,16.9245399 L8.19549083,16.8070947 Z"/><path fill="#D4D4D6" d="M13.9931,17.9996 C10.1761,17.9996 7.0811,12.4576 7.0811,7.5486 C7.0811,2.6396 10.1761,0.2246 13.9931,0.2246 C17.8121,0.2246 20.9071,2.6396 20.9071,7.5486 C20.9071,12.4576 17.8121,17.9996 13.9931,17.9996 Z"/><use xlink:href="#a" fill="#7A7A7D"/></g></svg>