<svg xmlns="http://www.w3.org/2000/svg" xmlns:xlink="http://www.w3.org/1999/xlink" width="48" height="48" viewBox="0 0 48 48"><defs><path id="a" d="M2,0 C0.895,0 0,0.895 0,2 L0,2 L0,22 C0,23.105 0.895,24 2,24 L2,24 L30,24 C30,18.477 34.476,14 40,14 L40,14 L40,2 C40,0.895 39.104,0 38,0 L38,0 L2,0 Z"/><path id="c" d="M2,0 C0.895,0 0,0.895 0,2 L0,22 C0,23.105 0.895,24 2,24 L30,24 C30,18.477 34.476,14 40,14 L40,2 C40,0.895 39.104,0 38,0"/><polygon id="e" points="0 0 10 0 10 8 0 8"/></defs><g fill="none" fill-rule="evenodd" transform="translate(0 13)"><mask id="b" fill="#fff"><use xlink:href="#a"/></mask><path fill="#ABABAD" d="M37.9998,0 C39.1038,0 39.9998,0.896 39.9998,2 L39.9998,14 C34.4768,14 29.9998,18.477 29.9998,24 L1.9998,24 C0.8958,24 -0.0002,23.104 -0.0002,22 L-0.0002,2 C-0.0002,0.896 0.8958,0 1.9998,0 L37.9998,0 Z" mask="url(#b)"/><mask id="d" fill="#fff"><use xlink:href="#c"/></mask><path fill="#7A7A7D" d="M37.9998,0 L20.7448,8.771 C20.2768,9.008 19.7238,9.008 19.2548,8.771 L1.9998,0 C0.9128,0 -0.0002,0.768 -0.0002,2 L19.2648,11.632 C19.7278,11.864 20.2718,11.864 20.7358,11.632 L39.9998,2 C39.9998,0.768 39.0868,0 37.9998,0" mask="url(#d)"/><g transform="translate(32 16)"><path fill="#35353B" fill-rule="nonzero" d="M8,0 C12.418687,0 16,3.58131298 16,8 C16,12.418687 12.418687,16 8,16 C3.58131298,16 0,12.418687 0,8 C0,3.58131298 3.58131298,0 8,0 Z"/><g transform="translate(3 4)"><mask id="f" fill="#fff"><use xlink:href="#e"/></mask><path fill="#F1F1F2" d="M6.58101926,7.83987862 L6.66081498,7.76632657 L9.78242366,4.54321008 C9.84306841,4.47295141 9.8824343,4.40049715 9.91435259,4.33682523 L9.94839877,4.27754448 C9.98244494,4.19191673 10.000532,4.09640885 10.000532,3.99980318 C10.000532,3.89990413 9.981381,3.80110287 9.94307905,3.70779058 C9.9047771,3.6122827 9.85051601,3.52775274 9.78242366,3.45749407 L6.57144377,0.154238776 C6.28524311,-0.0741019021 5.86285775,-0.0477549008 5.59899989,0.225595238 C5.45749548,0.371601537 5.37982764,0.56481288 5.37982764,0.770099932 C5.37982764,0.975386984 5.45749548,1.16859833 5.59899989,1.31350683 L7.45877221,3.23244676 L0.745292052,3.23244676 L0.636769869,3.23903351 C0.27928503,3.28623856 -0.000531971486,3.61338049 -0.000531971486,3.99980318 C-0.000531971486,4.42355078 0.334610065,4.76825738 0.745292052,4.76825738 L7.45770827,4.76825738 L5.59899989,6.6882951 C5.45749548,6.83320361 5.37982764,7.02641495 5.37982764,7.23060421 C5.37982764,7.43589126 5.45749548,7.6302004 5.59899989,7.77510891 C5.86498564,8.04955684 6.28949888,8.07480605 6.58101926,7.83987862" mask="url(#f)"/></g></g></g></svg>