<?xml version="1.0" encoding="UTF-8"?>
<svg width="48px" height="48px" viewBox="0 0 48 48" version="1.1" xmlns="http://www.w3.org/2000/svg" xmlns:xlink="http://www.w3.org/1999/xlink">
    <title>registration/dark/svg/mojeID</title>
    <g id="Export-Artboards" stroke="none" stroke-width="1" fill="none" fill-rule="evenodd">
        <g id="Registration-/dark-/-illustrations" transform="translate(-16.000000, -496.000000)">
            <g id="Group" transform="translate(16.000000, 496.000000)">
                <g id="bank" transform="translate(0.000000, 6.000000)">
                    <rect id="Rectangle" fill="#ffffff" x="7" y="14" width="34" height="16"></rect>
                    <path d="M11,14 L11,15 C11,15.5522847 10.5522847,16 10,16 L10,28 C10.5522847,28 11,28.4477153 11,29 L11,30 L21,30 L21,29 C21,28.4477153 21.4477153,28 22,28 L22,16 C21.4477153,16 21,15.5522847 21,15 L21,14 L27,14 L27,15 C27,15.5522847 26.5522847,16 26,16 L26,28 C26.5522847,28 27,28.4477153 27,29 L27,30 L37,30 L37,29 C37,28.4477153 37.4477153,28 38,28 L38,16 C37.4477153,16 37,15.5522847 37,15 L37,14 L43,14 L43,15 C43,15.5522847 42.5522847,16 42,16 L42,28 C42.5522847,28 43,28.4477153 43,29 L43,30 L45,30 C45.5522847,30 46,30.4477153 46,31 L46,33 L47,33 C47.5522847,33 48,33.4477153 48,34 L48,36 L0,36 L0,34 C-6.76353751e-17,33.4477153 0.44771525,33 1,33 L2,33 L2,31 C2,30.4477153 2.44771525,30 3,30 L5,30 L5,29 C5,28.4477153 5.44771525,28 6,28 L6,16 C5.44771525,16 5,15.5522847 5,15 L5,14 L11,14 Z M24.4785125,0.10032443 L45.2875146,9.26317051 C45.7192324,9.45333893 46,9.88172908 46,10.3561277 L46,12.8048017 C46,13.4642567 45.4656359,13.9989776 44.808499,13.9989776 L3.19150104,14 C2.53335773,14 2,13.4652791 2,12.8058241 L2,10.3561277 C2,9.88275149 2.27976122,9.45436134 2.71248542,9.26317051 L23.5214875,0.10134684 C23.8254008,-0.0336113924 24.1735928,-0.0336113924 24.4785125,0.10032443 Z" id="Combined-Shape" fill="#ababad"></path>
                    <circle id="Oval" fill="#ffffff" cx="24" cy="7" r="3"></circle>
                </g>
            </g>
        </g>
    </g>
</svg>