<svg width="30" height="30" viewBox="0 0 30 30" fill="none" xmlns="http://www.w3.org/2000/svg">
<path d="M10.3125 26.25C11.348 26.25 12.1875 25.4105 12.1875 24.375C12.1875 23.3395 11.348 22.5 10.3125 22.5C9.27697 22.5 8.4375 23.3395 8.4375 24.375C8.4375 25.4105 9.27697 26.25 10.3125 26.25Z" fill="#222D4A"/>
<path d="M23.4375 26.25C24.473 26.25 25.3125 25.4105 25.3125 24.375C25.3125 23.3395 24.473 22.5 23.4375 22.5C22.402 22.5 21.5625 23.3395 21.5625 24.375C21.5625 25.4105 22.402 26.25 23.4375 26.25Z" fill="#222D4A"/>
<path d="M9.83086 17.8125H25.1437L27.3937 6.5625H7.84512L7.34883 3.75H1.875V5.625H5.77617L8.58867 21.5625H25.3125V19.6875H10.1613L9.83086 17.8125Z" fill="#222D4A"/>
</svg>
