<svg width="26" height="22" viewBox="0 0 26 22" fill="none" xmlns="http://www.w3.org/2000/svg">
<path d="M2.59734 2.39424C2.03147 2.95519 1.58261 3.62114 1.27636 4.35406C0.970121 5.08698 0.8125 5.87252 0.8125 6.66582C0.8125 7.45913 0.970121 8.24467 1.27636 8.97759C1.58261 9.71051 2.03147 10.3765 2.59734 10.9374L13 21.2499L23.4027 10.9374C24.5455 9.80451 25.1875 8.26798 25.1875 6.66582C25.1875 5.06367 24.5455 3.52713 23.4027 2.39424C22.2599 1.26135 20.7099 0.624893 19.0937 0.624893C17.4776 0.624893 15.9276 1.26135 14.7848 2.39424L13 4.16355L11.2152 2.39424C10.6494 1.83328 9.9776 1.38831 9.23827 1.08472C8.49894 0.781133 7.70653 0.624878 6.90628 0.624878C6.10603 0.624878 5.31362 0.781133 4.57429 1.08472C3.83496 1.38831 3.16319 1.83328 2.59734 2.39424Z" fill="#222D4A"/>
</svg>
