<svg width="18" height="24" viewBox="0 0 18 24" fill="none" xmlns="http://www.w3.org/2000/svg">
<path d="M9.00071 3.27273V0L4.63707 4.36364L9.00071 8.72727V5.45455C12.6007 5.45455 15.5462 8.4 15.5462 12C15.5462 13.0909 15.2189 14.1818 14.7825 15.0545L16.4189 16.6909C17.1825 15.2727 17.728 13.7455 17.728 12C17.728 7.2 13.8007 3.27273 9.00071 3.27273ZM9.00071 18.5455C5.40071 18.5455 2.45526 15.6 2.45526 12C2.45526 10.9091 2.78253 9.81818 3.21889 8.94545L1.58253 7.30909C0.818892 8.72727 0.273438 10.2545 0.273438 12C0.273438 16.8 4.20071 20.7273 9.00071 20.7273V24L13.3643 19.6364L9.00071 15.2727V18.5455Z" fill="#222D4A"/>
</svg>
